<?xml version="1.0" standalone="no"?><!DOCTYPE svg PUBLIC "-//W3C//DTD SVG 1.1//EN" "http://www.w3.org/Graphics/SVG/1.1/DTD/svg11.dtd"><svg xmlns:xlink="http://www.w3.org/1999/xlink" xmlns="http://www.w3.org/2000/svg" version="1.1" width="200" height="200" viewBox="0 0 200 200"><defs><style type="text/css"><![CDATA[
@font-face {
  font-family: "ifont";
  src: url("//at.alicdn.com/t/font_1442373896_4754455.eot?#iefix") format("embedded-opentype"), url("//at.alicdn.com/t/font_1442373896_4754455.woff") format("woff"), url("//at.alicdn.com/t/font_1442373896_4754455.ttf") format("truetype"), url("//at.alicdn.com/t/font_1442373896_4754455.svg#ifont") format("svg");
}

]]></style></defs><g class="transform-group"><g transform="scale(0.1953125, 0.1953125)"><path d="M810.656 170.656q18.336 0 30.496 12.16t12.16 30.496q0 18.016-12.32 30.336l-268.672 268.32 268.672 268.32q12.32 12.32 12.32 30.336 0 18.336-12.16 30.496t-30.496 12.16q-18.016 0-30.336-12.32l-268.32-268.672-268.32 268.672q-12.32 12.32-30.336 12.32-18.336 0-30.496-12.16t-12.16-30.496q0-18.016 12.32-30.336l268.672-268.32-268.672-268.32q-12.32-12.32-12.32-30.336 0-18.336 12.16-30.496t30.496-12.16q18.016 0 30.336 12.32l268.32 268.672 268.32-268.672q12.32-12.32 30.336-12.32z" fill="#e5e5e5"></path></g></g></svg>